<?xml version="1.0" standalone="no"?>
<svg xmlns="http://www.w3.org/2000/svg" viewBox="0 0 131.592 29" width="131.592" height="29"><g fill="#ff1f1f" color="#ff1f1f" transform="translate(0, 0) scale(0.3020834)"><svg width="96.0" height="96.0" x="0.0" y="0.0" viewBox="0 0 96 96"><g><path d="M46.508,49.757C46.342,49.641,46,49.732,46,49.903v8.193c0,0.172,0.332,0.262,0.498,0.147l5.943-4.097   c0.113-0.079,0.094-0.215-0.019-0.293L46.508,49.757z"></path><path d="M82.207,41.757c0.016-0.369,0.028-0.74,0.028-1.113C82.235,27.033,71.188,16,57.56,16c-9.869,0-18.381,5.788-22.327,14.149   c-2.192-1.562-4.9-2.488-7.832-2.488c-7.295,0-13.208,5.714-13.208,12.762c0,1.046,0.133,2.063,0.379,3.035   C6.251,45.229,0,52.766,0,61.781C0,72.109,8.208,80,18.333,80h60.123C88.145,80,96,71.715,96,60.901   C96,51.522,90.093,43.675,82.207,41.757z M64,60.33c0,2.027-1.643,3.67-3.67,3.67H37.67C35.643,64,34,62.357,34,60.33V47.67   c0-2.027,1.643-3.67,3.67-3.67H60.33c2.027,0,3.67,1.643,3.67,3.67V60.33z"></path></g></svg></g><line x1="41" y1="1" x2="41" y2="28" stroke="#210b0b" stroke-linecap="round"></line><path fill="#210b0b" fill-rule="nonzero" d="M4.78 3.24L0 3.24L0 0L4.78 0L4.78 3.24ZM4.78 17.40L0 17.40L0 4.73L4.78 4.73L4.78 17.40ZM18.79 17.40L12.65 17.40L6.79 0.89L12.46 0.89L15.77 11.93L15.86 11.93L19.20 0.89L24.62 0.89L18.79 17.40ZM31.82 3.24L27.05 3.24L27.05 0L31.82 0L31.82 3.24ZM31.82 17.40L27.05 17.40L27.05 4.73L31.82 4.73L31.82 17.40ZM47.98 17.40L44.09 17.40L43.68 15.60Q42.29 17.69 39.65 17.69L39.65 17.69Q37.08 17.69 35.69 16.01Q34.30 14.33 34.30 11.04L34.30 11.04Q34.30 7.78 35.69 6.11Q37.08 4.44 39.65 4.44L39.65 4.44Q41.83 4.44 43.20 5.90L43.20 5.90L43.20 0L47.98 0L47.98 17.40ZM41.14 7.97Q39.07 7.97 39.07 10.44L39.07 10.44L39.07 11.71Q39.07 14.16 41.14 14.16L41.14 14.16Q42.19 14.16 42.72 13.42Q43.25 12.67 43.25 11.47L43.25 11.47L43.25 10.68Q43.25 9.48 42.72 8.72Q42.19 7.97 41.14 7.97L41.14 7.97ZM57.43 4.44Q60.91 4.44 62.75 6.07Q64.58 7.70 64.58 11.06L64.58 11.06L64.58 11.88L55.08 11.88Q55.08 13.25 55.69 13.94Q56.30 14.64 57.62 14.64L57.62 14.64Q58.82 14.64 59.39 14.14Q59.95 13.63 59.95 12.79L59.95 12.79L64.58 12.79Q64.58 15.10 62.83 16.39Q61.08 17.69 57.72 17.69L57.72 17.69Q54.19 17.69 52.25 16.04Q50.30 14.40 50.30 11.06L50.30 11.06Q50.30 7.80 52.20 6.12Q54.10 4.44 57.43 4.44L57.43 4.44ZM57.62 7.49Q55.37 7.49 55.10 9.62L55.10 9.62L59.76 9.62Q59.76 8.64 59.20 8.06Q58.63 7.49 57.62 7.49L57.62 7.49ZM73.44 4.44Q76.78 4.44 78.68 6.13Q80.59 7.82 80.59 11.06L80.59 11.06Q80.59 14.30 78.68 16.00Q76.78 17.69 73.44 17.69L73.44 17.69Q70.10 17.69 68.21 16.01Q66.31 14.33 66.31 11.06L66.31 11.06Q66.31 7.80 68.21 6.12Q70.10 4.44 73.44 4.44L73.44 4.44ZM73.44 7.68Q71.09 7.68 71.09 10.39L71.09 10.39L71.09 11.76Q71.09 14.45 73.44 14.45L73.44 14.45Q75.82 14.45 75.82 11.76L75.82 11.76L75.82 10.39Q75.82 7.68 73.44 7.68L73.44 7.68Z" transform="translate(51, 5.8)"></path></svg>